<?xml version="1.0" standalone="no"?><!DOCTYPE svg PUBLIC "-//W3C//DTD SVG 1.1//EN" "http://www.w3.org/Graphics/SVG/1.1/DTD/svg11.dtd"><svg t="1597045983370" class="icon" viewBox="0 0 1024 1024" version="1.1" xmlns="http://www.w3.org/2000/svg" p-id="1327" xmlns:xlink="http://www.w3.org/1999/xlink" width="200" height="200"><defs><style type="text/css"></style></defs><path d="M902.095238 314.514286V853.333333a97.52381 97.52381 0 0 1-97.523809 97.52381H219.428571a97.52381 97.52381 0 0 1-97.523809-97.52381V170.666667a97.52381 97.52381 0 0 1 97.523809-97.52381h441.295239z" fill="#C386F0" p-id="1328"></path><path d="M660.72381 216.990476V73.142857l241.371428 241.371429h-143.847619a97.52381 97.52381 0 0 1-97.523809-97.52381z" fill="#A15FDE" p-id="1329"></path><path d="M343.04 424.228571m24.380952 0l240.64 0q24.380952 0 24.380953 24.380953l0 182.369524q0 24.380952-24.380953 24.380952l-240.64 0q-24.380952 0-24.380952-24.380952l0-182.369524q0-24.380952 24.380952-24.380953Z" fill="#FFFFFF" p-id="1330"></path><path d="M585.142857 560.761905l101.912381 58.758095a24.380952 24.380952 0 0 0 36.571429-20.967619v-117.516191a24.380952 24.380952 0 0 0-36.571429-21.211428L585.142857 518.826667A24.380952 24.380952 0 0 0 585.142857 560.761905z" fill="#FFFFFF" p-id="1331"></path></svg>