<?xml version="1.0" standalone="no"?><!DOCTYPE svg PUBLIC "-//W3C//DTD SVG 1.1//EN" "http://www.w3.org/Graphics/SVG/1.1/DTD/svg11.dtd"><svg t="1601256200007" class="icon" viewBox="0 0 1024 1024" version="1.1" xmlns="http://www.w3.org/2000/svg" p-id="3637" xmlns:xlink="http://www.w3.org/1999/xlink" width="200" height="200"><defs><style type="text/css"></style></defs><path d="M761.456 243.026C766.39 134.48 696.506 33.916 590.258 6.94c-100.908-25.618-202.69 23.29-250.8 112.668C214.06 144.57 107.842 242.134 75.29 378.374c-44.612 186.77 66.074 375.43 247.268 421.418 67.386 17.118 128.774-4.094 189.442-26.774 220.964 99.5 399.378-10.686 438.024-172.574 36.518-152.81-46.988-307.09-188.568-357.418z" fill="#9ED36A" p-id="3638"></path><path d="M761.456 243.026C766.39 134.48 696.506 33.916 590.258 6.94c-32.742-8.31-65.574-8.762-96.66-2.546 3.78 0.75 7.56 1.594 11.34 2.546 106.248 26.976 176.134 127.54 171.198 236.084 141.582 50.328 225.088 204.61 188.566 357.42-25.554 107.094-112.278 191.536-232.022 207.656 163.044 20.682 286.038-76.54 317.342-207.656 36.52-152.81-46.986-307.09-188.566-357.418z" fill="#FFFFFF" opacity=".2" p-id="3639"></path><path d="M523.746 659.148l-134.99-128.336c-8.528-8.124-22.056-7.782-30.148 0.764-8.122 8.53-7.778 22.042 0.75 30.162l134.99 128.336 29.398-30.926zM657.174 435.826c-6.81-9.622-20.12-11.902-29.708-5.092l-126.806 89.768 24.65 34.834 126.804-89.786c9.59-6.81 11.87-20.118 5.06-29.724z" fill="#7F4545" p-id="3640"></path><path d="M511.812 341.324c-11.778 0-21.338 9.544-21.338 21.322v661.204h42.642V362.644c0.002-11.776-9.526-21.32-21.304-21.32z" fill="#965353" p-id="3641"></path><path d="M575.792 981.206h-127.96c-11.81 0-21.338 9.53-21.338 21.306s9.528 21.336 21.338 21.336h127.96c11.778 0 21.336-9.558 21.336-21.336s-9.558-21.306-21.336-21.306z" fill="#424953" p-id="3642"></path><path d="M255.86 298.664c-11.778 0-21.338 9.544-21.338 21.322 0 11.778 9.56 21.336 21.338 21.336s21.336-9.56 21.336-21.336c0-11.778-9.56-21.322-21.336-21.322zM469.138 170.688c-11.778 0-21.306 9.544-21.306 21.322 0 11.792 9.528 21.336 21.306 21.336s21.336-9.544 21.336-21.336c0-11.778-9.558-21.322-21.336-21.322zM768.078 511.942c11.778 0 21.336-9.542 21.336-21.322 0-11.778-9.558-21.322-21.336-21.322s-21.338 9.544-21.338 21.322c0 11.78 9.56 21.322 21.338 21.322zM639.774 256.006c-11.778 0-21.338 9.544-21.338 21.322 0 11.792 9.56 21.336 21.338 21.336s21.336-9.544 21.336-21.336c0-11.778-9.56-21.322-21.336-21.322zM341.176 639.934c-11.778 0-21.336 9.56-21.336 21.338s9.56 21.306 21.336 21.306 21.336-9.53 21.336-21.306-9.558-21.338-21.336-21.338zM213.216 511.942c-11.808 0-21.336 9.56-21.336 21.336s9.528 21.338 21.336 21.338c11.746 0 21.306-9.56 21.306-21.338s-9.56-21.336-21.306-21.336zM383.82 384.154c-11.778 0-21.306 9.544-21.306 21.336 0 11.778 9.528 21.322 21.306 21.322s21.336-9.544 21.336-21.322c0.002-11.792-9.558-21.336-21.336-21.336zM639.774 554.618c-11.778 0-21.338 9.558-21.338 21.336s9.56 21.306 21.338 21.306 21.336-9.53 21.336-21.306-9.56-21.336-21.336-21.336zM768.078 639.934c-11.778 0-21.338 9.56-21.338 21.338s9.56 21.306 21.338 21.306 21.336-9.53 21.336-21.306-9.558-21.338-21.336-21.338z" fill="#EC5564" p-id="3643"></path></svg>