<?xml version="1.0" standalone="no"?><!DOCTYPE svg PUBLIC "-//W3C//DTD SVG 1.1//EN" "http://www.w3.org/Graphics/SVG/1.1/DTD/svg11.dtd"><svg t="1597046405747" class="icon" viewBox="0 0 1024 1024" version="1.1" xmlns="http://www.w3.org/2000/svg" p-id="1787" xmlns:xlink="http://www.w3.org/1999/xlink" width="200" height="200"><defs><style type="text/css"></style></defs><path d="M902.095238 314.514286V853.333333a97.52381 97.52381 0 0 1-97.523809 97.52381H219.428571a97.52381 97.52381 0 0 1-97.523809-97.52381V170.666667a97.52381 97.52381 0 0 1 97.523809-97.52381h441.295239z" fill="#F4C446" p-id="1788"></path><path d="M660.72381 216.990476V73.142857l241.371428 241.371429h-143.847619a97.52381 97.52381 0 0 1-97.523809-97.52381z" fill="#DBAC30" p-id="1789"></path><path d="M447.390476 73.142857h58.758095v58.758095h-58.758095zM505.904762 131.900952h58.758095v58.758096h-58.758095z" fill="#FFFFFF" p-id="1790"></path><path d="M447.390476 190.415238h58.758095v58.758095h-58.758095zM505.904762 249.173333h58.758095v58.758096h-58.758095z" fill="#FFFFFF" p-id="1791"></path><path d="M447.390476 307.687619h58.758095v58.758095h-58.758095zM505.904762 366.445714h58.758095v58.758096h-58.758095zM447.390476 425.20381h58.758095v58.758095h-58.758095z" fill="#FFFFFF" p-id="1792"></path><path d="M505.904762 483.718095h58.758095v58.758095h-58.758095zM447.390476 609.52381v117.028571a29.257143 29.257143 0 0 0 29.257143 29.257143H536.380952a29.257143 29.257143 0 0 0 29.257143-29.257143V609.52381zM536.380952 726.552381h-59.733333v-58.758095H536.380952z" fill="#FFFFFF" p-id="1793"></path></svg>