<?xml version="1.0" standalone="no"?><!DOCTYPE svg PUBLIC "-//W3C//DTD SVG 1.1//EN" "http://www.w3.org/Graphics/SVG/1.1/DTD/svg11.dtd"><svg t="1578282512666" class="icon" viewBox="0 0 1024 1024" version="1.1" xmlns="http://www.w3.org/2000/svg" p-id="1726" xmlns:xlink="http://www.w3.org/1999/xlink" width="200" height="200"><defs><style type="text/css"></style></defs><path d="M157.568 140.288h613.504c67.456 0 122.752 55.168 122.752 122.752v536.832c0.384 41.984-33.28 76.288-75.264 76.672H157.568c-67.456 0-122.752-55.168-122.752-122.624V262.912c0-67.456 55.168-122.624 122.752-122.624z" fill="#FFBB96" p-id="1727"></path><path d="M157.568 140.288h613.504c67.456 0 122.752 55.168 122.752 122.752V646.4l-122.752 110.464-3.072 3.072-122.752 116.48h-487.68c-67.584 0-122.752-55.168-122.752-122.624V262.912c0-67.456 55.168-122.624 122.752-122.624z" fill="#CF5A1A" p-id="1728"></path><path d="M157.568 140.288h613.504c67.456 0 122.752 55.168 122.752 122.752V646.4H724.992c-41.984-0.384-76.288 33.28-76.672 75.136v154.88H157.568c-67.456 0-122.752-55.168-122.752-122.624V262.912c0-67.456 55.168-122.624 122.752-122.624z" fill="#FF7A45" p-id="1729"></path><path d="M341.504 78.976v141.056c0 18.432-12.288 30.72-30.72 30.72s-30.72-12.288-30.72-30.72V78.976c0-18.432 12.288-30.72 30.72-30.72s30.72 12.288 30.72 30.72z m276.096 171.776c18.432 0 30.72-12.288 30.72-30.72V78.976c0-18.432-12.288-30.72-30.72-30.72s-30.72 12.288-30.72 30.72v141.056c0.128 18.432 12.288 30.592 30.72 30.72zM295.552 401.024c-25.472 0-46.08 20.608-46.08 45.952 0 25.472 20.608 46.08 45.952 46.08 25.344 0 45.952-20.608 46.08-45.952 0.128-25.472-20.48-46.08-45.952-46.08z m168.704 76.672h184.064c18.432 0 30.72-12.288 30.72-30.72s-12.288-30.72-30.72-30.72H464.256c-18.432 0-30.72 12.288-30.72 30.72s12.288 30.72 30.72 30.72z m184.064 92.032H464.256c-18.432 0-30.72 12.288-30.72 30.72s12.288 30.72 30.72 30.72h184.064c18.432 0 30.72-12.288 30.72-30.72s-12.288-30.72-30.72-30.72z m-352.768-15.36c-25.472 0-46.08 20.608-46.08 45.952 0 25.472 20.608 46.08 45.952 46.08 25.472 0 46.08-20.608 46.08-45.952 0-25.472-20.608-46.08-45.952-46.08z" fill="#FFBB96" p-id="1730"></path><path d="M510.464 732.16c-2.304 132.224 102.912 241.28 235.008 243.584 132.224 2.304 241.28-102.912 243.584-235.008V732.16c0-132.224-107.136-239.36-239.36-239.36s-239.232 107.136-239.232 239.36z" fill="#FFFFFF" p-id="1731"></path><path d="M867.584 861.184c-9.6 3.2-18.56 1.408-25.856-6.016-18.176-18.688-91.904-93.44-109.824-112.384-4.736-5.12-7.296-11.776-7.04-18.688 0-37.12-0.128-74.112 0-111.232 0.128-15.36 11.648-27.136 26.112-27.136s29.184 11.904 29.44 27.52-0.384 78.72 0 94.592c0.256 2.944 1.408 5.632 3.328 7.808 13.696 14.848 80.64 84.864 94.336 99.712 13.952 15.104 8.32 39.424-10.496 45.824z" fill="#FF7A45" p-id="1732"></path></svg>