<?xml version="1.0" standalone="no"?><!DOCTYPE svg PUBLIC "-//W3C//DTD SVG 1.1//EN" "http://www.w3.org/Graphics/SVG/1.1/DTD/svg11.dtd"><svg t="1568942621170" class="icon" viewBox="0 0 1024 1024" version="1.1" xmlns="http://www.w3.org/2000/svg" p-id="1123" xmlns:xlink="http://www.w3.org/1999/xlink" width="200" height="200"><defs><style type="text/css"></style></defs><path d="M431.696 568.173c-62.947 0-122.126-24.512-166.637-69.023s-69.023-103.69-69.023-166.637 24.513-122.126 69.023-166.637c44.51-44.51 103.69-69.023 166.637-69.023s122.127 24.513 166.637 69.023c44.51 44.51 69.023 103.69 69.023 166.637 0 62.948-24.513 122.127-69.023 166.637-44.51 44.511-103.69 69.023-166.637 69.023z m0-420.155c-101.73 0-184.495 82.764-184.495 184.495s82.764 184.495 184.495 184.495c101.732 0 184.495-82.764 184.495-184.495s-82.764-184.495-184.495-184.495z m-0.001 425.273c-64.314 0-124.779-25.045-170.255-70.522s-70.522-105.941-70.522-170.256c0-64.313 25.046-124.778 70.522-170.254 45.477-45.477 105.941-70.523 170.255-70.523 64.313 0 124.778 25.046 170.255 70.523 45.476 45.477 70.522 105.941 70.522 170.254 0 64.314-25.046 124.778-70.522 170.256-45.476 45.477-105.94 70.522-170.255 70.522z m0-471.322c-61.58 0-119.475 23.982-163.019 67.525-43.544 43.545-67.525 101.44-67.525 163.02 0 61.58 23.981 119.474 67.525 163.019s101.439 67.525 163.019 67.525 119.475-23.981 163.02-67.525c43.544-43.545 67.524-101.44 67.524-163.02s-23.981-119.474-67.524-163.019c-43.546-43.543-101.44-67.525-163.02-67.525z m0 420.156c-104.552 0-189.611-85.06-189.611-189.612s85.059-189.611 189.611-189.611 189.611 85.059 189.611 189.611-85.059 189.612-189.611 189.612z m0-368.99c-98.91 0-179.378 80.468-179.378 179.378s80.47 179.379 179.378 179.379c98.91 0 179.378-80.47 179.378-179.379s-80.467-179.378-179.378-179.378zM93.123 927.143c-14.129 0-25.583-11.453-25.583-25.583 0-12.349 0-24.029 2.234-37.94 8.698-91.137 50.038-175.701 116.468-238.193 67.333-63.338 154.503-98.22 245.453-98.22 184.08 0 339.61 140.21 361.901 326.168 2.254 15.968 2.254 31.308 2.254 46.146 0 14.129-11.453 25.583-25.583 25.583s-25.583-11.454-25.583-25.583c0-13.75 0-26.736-1.782-39.213l-0.077-0.594c-19.095-160.39-152.851-281.341-311.13-281.341-77.87 0-152.59 29.947-210.396 84.323-57.56 54.145-93.31 127.504-100.663 206.56l-0.086 0.923-0.153 0.914c-1.691 10.149-1.691 18.67-1.691 30.466 0 14.13-11.454 25.584-25.583 25.584z m0 5.118c-16.928 0-30.7-13.772-30.7-30.7 0-12.519 0-24.347 2.273-38.588 8.851-92.305 50.768-177.988 118.04-241.272 68.285-64.233 156.7-99.61 248.959-99.61 186.605 0 344.364 142.126 366.975 330.624 2.296 16.305 2.296 31.81 2.296 46.807 0 16.927-13.771 30.7-30.699 30.7s-30.7-13.773-30.7-30.7c0-13.562 0-26.372-1.73-38.49l-0.085-0.66C718.955 702.502 587.384 583.49 431.695 583.49c-76.562 0-150.037 29.453-206.89 82.933-56.651 53.29-91.837 125.494-99.074 203.308l-0.134 1.293-0.153 0.915c-1.62 9.728-1.62 18.072-1.62 29.622-0.002 16.928-13.774 30.7-30.701 30.7z m338.571-399.936c-89.642 0-175.567 34.387-241.947 96.83-65.502 61.619-106.3 145.06-114.88 234.952l-0.042 0.326c-2.17 13.507-2.17 24.98-2.17 37.128 0 11.285 9.182 20.467 20.467 20.467s20.466-9.183 20.466-20.468c0-12.042 0-20.742 1.761-31.308l0.123-0.733 0.068-0.737c7.469-80.299 43.783-154.812 102.252-209.813 58.759-55.273 134.724-85.713 213.902-85.713 160.869 0 296.81 122.89 316.21 285.854l0.07 0.54c1.826 12.77 1.826 25.935 1.826 39.87 0 11.286 9.181 20.467 20.466 20.467s20.466-9.181 20.466-20.466c0-14.66 0-29.82-2.203-45.432l-0.014-0.106c-21.98-183.376-175.38-321.658-356.821-321.658zM927.35 927.146c-1.12 0-2.252-0.074-3.393-0.225-14.007-1.855-23.856-14.715-22-28.721 5.148-38.84 4.338-77.704-2.406-115.511-6.516-36.533-18.424-71.349-35.392-103.48-16.773-31.761-38.043-60.062-63.218-84.116-25.503-24.366-54.393-43.763-85.869-57.648-12.927-5.703-18.783-20.806-13.08-33.733s20.808-18.78 33.732-13.08c36.922 16.29 70.757 38.988 100.563 67.468 29.166 27.867 53.766 60.575 73.116 97.216 19.44 36.814 33.072 76.644 40.519 118.39 7.67 43 8.597 87.146 2.757 131.216-1.707 12.864-12.698 22.224-25.33 22.224z m0 5.118c-1.35 0-2.72-0.091-4.069-0.272-8.125-1.075-15.348-5.253-20.335-11.763-4.986-6.51-7.139-14.571-6.062-22.701 5.079-38.318 4.281-76.653-2.37-113.94-6.422-36.012-18.158-70.327-34.88-101.99-16.516-31.275-37.452-59.133-62.229-82.805-25.073-23.957-53.469-43.023-84.399-56.668-7.503-3.31-13.268-9.343-16.232-16.989-2.963-7.645-2.774-15.988 0.537-23.49 6.83-15.487 24.988-22.53 40.477-15.696 37.469 16.53 71.798 39.56 102.032 68.449 29.568 28.249 54.5 61.398 74.106 98.526 19.688 37.285 33.493 77.618 41.032 119.88 7.762 43.518 8.702 88.195 2.792 132.787-2.017 15.207-15.086 26.672-30.4 26.672z m-201.923-438.69c-7.867 0-15.38 4.557-18.753 12.203a20.33 20.33 0 0 0-0.358 15.66 20.331 20.331 0 0 0 10.82 11.326c32.02 14.125 61.405 33.85 87.338 58.63 25.575 24.435 47.178 53.176 64.208 85.425 17.216 32.6 29.297 67.918 35.904 104.972 6.838 38.324 7.659 77.717 2.443 117.081a20.327 20.327 0 0 0 4.041 15.133 20.326 20.326 0 0 0 13.558 7.842c0.906 0.121 1.82 0.183 2.72 0.183 10.204 0 18.912-7.646 20.257-17.781 5.772-43.546 4.856-87.166-2.72-129.645-7.354-41.22-20.814-80.552-40.008-116.899-19.09-36.15-43.358-68.418-72.126-95.906-29.374-28.067-62.713-50.437-99.093-66.485a20.37 20.37 0 0 0-8.231-1.74z m-20.42 46.052c-10.245 0-19.913-6.195-23.85-16.316-5.121-13.168 1.403-27.995 14.57-33.116 31.998-12.443 59.336-33.948 79.061-62.19 20.335-29.116 31.084-63.547 31.084-99.569s-10.749-70.452-31.084-99.568c-19.724-28.244-47.063-49.749-79.06-62.19-13.168-5.122-19.692-19.948-14.57-33.116 5.12-13.169 19.949-19.69 33.115-14.571 41.48 16.131 76.912 43.996 102.462 80.581 26.367 37.751 40.302 82.312 40.302 128.866s-13.935 91.115-40.302 128.866c-25.55 36.586-60.982 64.45-102.462 80.582a25.61 25.61 0 0 1-9.266 1.741z m-0.001 5.117c-12.76 0-23.992-7.685-28.618-19.578-2.972-7.642-2.79-15.985 0.512-23.491 3.303-7.506 9.33-13.277 16.972-16.248 31.048-12.074 57.578-32.943 76.72-60.352 19.733-28.252 30.164-61.67 30.164-96.639s-10.43-68.386-30.163-96.639c-19.141-27.408-45.672-48.277-76.72-60.351-7.643-2.972-13.67-8.742-16.973-16.248-3.303-7.505-3.484-15.848-0.512-23.491 6.134-15.775 23.96-23.62 39.738-17.486 42.43 16.501 78.67 45.002 104.804 82.42 26.968 38.614 41.223 84.188 41.223 131.796s-14.255 93.183-41.223 131.796c-26.133 37.418-62.374 65.918-104.803 82.42a30.636 30.636 0 0 1-11.121 2.09z m0.02-422.376c-8.2 0-15.955 4.96-19.1 13.048-1.982 5.095-1.86 10.657 0.341 15.66s6.22 8.851 11.316 10.833c32.945 12.811 61.093 34.952 81.4 64.029 20.939 29.98 32.006 65.423 32.006 102.498s-11.067 72.519-32.005 102.499c-20.31 29.077-48.458 51.218-81.401 64.029a20.333 20.333 0 0 0-11.316 10.832 20.332 20.332 0 0 0-0.34 15.66c3.083 7.931 10.573 13.055 19.08 13.055 2.531 0 5.026-0.47 7.418-1.396 40.527-15.762 75.15-42.99 100.116-78.74 25.763-36.887 39.38-80.434 39.38-125.936s-13.618-89.049-39.38-125.936c-24.968-35.75-59.59-62.978-100.122-78.742a20.349 20.349 0 0 0-7.394-1.393z" fill="" p-id="1124"></path></svg>